<mxfile host="app.diagrams.net" modified="2024-03-27T23:41:02.572Z" agent="Mozilla/5.0 (Macintosh; Intel Mac OS X 10_15_7) AppleWebKit/537.36 (KHTML, like Gecko) Chrome/123.0.0.0 Safari/537.36" etag="iVHp9MpWxpJkQqExSCFP" version="24.2.0" type="github">
  <diagram id="R2lEEEUBdFMjLlhIrx00" name="Page-1">
    <mxGraphModel dx="671" dy="786" grid="1" gridSize="10" guides="1" tooltips="1" connect="1" arrows="1" fold="1" page="1" pageScale="1" pageWidth="850" pageHeight="1100" math="0" shadow="0" extFonts="Permanent Marker^https://fonts.googleapis.com/css?family=Permanent+Marker">
      <root>
        <mxCell id="0" />
        <mxCell id="1" parent="0" />
        <mxCell id="FYlKtJ1EGxiQtm9-EcXI-2" value="team" style="rounded=1;arcSize=10;whiteSpace=wrap;html=1;align=center;" vertex="1" parent="1">
          <mxGeometry x="310" y="270" width="100" height="40" as="geometry" />
        </mxCell>
        <mxCell id="FYlKtJ1EGxiQtm9-EcXI-3" value="teamID" style="ellipse;whiteSpace=wrap;html=1;align=center;fontStyle=4;" vertex="1" parent="1">
          <mxGeometry x="210" y="180" width="100" height="40" as="geometry" />
        </mxCell>
        <mxCell id="FYlKtJ1EGxiQtm9-EcXI-4" value="" style="endArrow=none;html=1;rounded=0;entryX=0.58;entryY=1;entryDx=0;entryDy=0;entryPerimeter=0;exitX=0;exitY=0;exitDx=0;exitDy=0;" edge="1" parent="1" source="FYlKtJ1EGxiQtm9-EcXI-2" target="FYlKtJ1EGxiQtm9-EcXI-3">
          <mxGeometry width="50" height="50" relative="1" as="geometry">
            <mxPoint x="250" y="320" as="sourcePoint" />
            <mxPoint x="300" y="270" as="targetPoint" />
          </mxGeometry>
        </mxCell>
        <mxCell id="FYlKtJ1EGxiQtm9-EcXI-5" value="name" style="ellipse;whiteSpace=wrap;html=1;align=center;" vertex="1" parent="1">
          <mxGeometry x="140" y="240" width="100" height="40" as="geometry" />
        </mxCell>
        <mxCell id="FYlKtJ1EGxiQtm9-EcXI-6" value="" style="endArrow=none;html=1;rounded=0;entryX=0;entryY=0.5;entryDx=0;entryDy=0;exitX=1;exitY=0.5;exitDx=0;exitDy=0;" edge="1" parent="1" source="FYlKtJ1EGxiQtm9-EcXI-5" target="FYlKtJ1EGxiQtm9-EcXI-2">
          <mxGeometry width="50" height="50" relative="1" as="geometry">
            <mxPoint x="270" y="350" as="sourcePoint" />
            <mxPoint x="320" y="300" as="targetPoint" />
          </mxGeometry>
        </mxCell>
        <mxCell id="FYlKtJ1EGxiQtm9-EcXI-7" value="main Stadium" style="ellipse;whiteSpace=wrap;html=1;align=center;" vertex="1" parent="1">
          <mxGeometry x="120" y="290" width="100" height="40" as="geometry" />
        </mxCell>
        <mxCell id="FYlKtJ1EGxiQtm9-EcXI-8" value="" style="endArrow=none;html=1;rounded=0;entryX=0;entryY=1;entryDx=0;entryDy=0;exitX=1;exitY=0.5;exitDx=0;exitDy=0;" edge="1" parent="1" source="FYlKtJ1EGxiQtm9-EcXI-7" target="FYlKtJ1EGxiQtm9-EcXI-2">
          <mxGeometry width="50" height="50" relative="1" as="geometry">
            <mxPoint x="250" y="380" as="sourcePoint" />
            <mxPoint x="300" y="330" as="targetPoint" />
          </mxGeometry>
        </mxCell>
        <mxCell id="FYlKtJ1EGxiQtm9-EcXI-9" value="City" style="ellipse;whiteSpace=wrap;html=1;align=center;" vertex="1" parent="1">
          <mxGeometry x="130" y="350" width="100" height="40" as="geometry" />
        </mxCell>
        <mxCell id="FYlKtJ1EGxiQtm9-EcXI-10" value="" style="endArrow=none;html=1;rounded=0;entryX=0.15;entryY=0.975;entryDx=0;entryDy=0;entryPerimeter=0;exitX=1;exitY=0.35;exitDx=0;exitDy=0;exitPerimeter=0;" edge="1" parent="1" source="FYlKtJ1EGxiQtm9-EcXI-9" target="FYlKtJ1EGxiQtm9-EcXI-2">
          <mxGeometry width="50" height="50" relative="1" as="geometry">
            <mxPoint x="260" y="390" as="sourcePoint" />
            <mxPoint x="310" y="340" as="targetPoint" />
          </mxGeometry>
        </mxCell>
        <mxCell id="FYlKtJ1EGxiQtm9-EcXI-11" value="Player" style="rounded=1;arcSize=10;whiteSpace=wrap;html=1;align=center;" vertex="1" parent="1">
          <mxGeometry x="440" y="560" width="100" height="40" as="geometry" />
        </mxCell>
        <mxCell id="FYlKtJ1EGxiQtm9-EcXI-12" value="" style="endArrow=none;html=1;rounded=0;entryX=0;entryY=0;entryDx=0;entryDy=0;exitX=0.5;exitY=1;exitDx=0;exitDy=0;" edge="1" parent="1" source="FYlKtJ1EGxiQtm9-EcXI-13" target="FYlKtJ1EGxiQtm9-EcXI-11">
          <mxGeometry width="50" height="50" relative="1" as="geometry">
            <mxPoint x="410" y="450" as="sourcePoint" />
            <mxPoint x="380" y="470" as="targetPoint" />
          </mxGeometry>
        </mxCell>
        <mxCell id="FYlKtJ1EGxiQtm9-EcXI-13" value="Plays for" style="shape=rhombus;perimeter=rhombusPerimeter;whiteSpace=wrap;html=1;align=center;" vertex="1" parent="1">
          <mxGeometry x="350" y="420" width="120" height="60" as="geometry" />
        </mxCell>
        <mxCell id="FYlKtJ1EGxiQtm9-EcXI-14" value="" style="endArrow=classic;html=1;rounded=0;" edge="1" parent="1" source="FYlKtJ1EGxiQtm9-EcXI-13" target="FYlKtJ1EGxiQtm9-EcXI-2">
          <mxGeometry width="50" height="50" relative="1" as="geometry">
            <mxPoint x="280" y="430" as="sourcePoint" />
            <mxPoint x="330" y="380" as="targetPoint" />
          </mxGeometry>
        </mxCell>
        <mxCell id="FYlKtJ1EGxiQtm9-EcXI-15" value="1" style="text;strokeColor=none;align=center;fillColor=none;html=1;verticalAlign=middle;whiteSpace=wrap;rounded=0;" vertex="1" parent="1">
          <mxGeometry x="360" y="320" width="60" height="30" as="geometry" />
        </mxCell>
        <mxCell id="FYlKtJ1EGxiQtm9-EcXI-16" value="" style="endArrow=none;html=1;rounded=0;entryX=0.683;entryY=0.85;entryDx=0;entryDy=0;entryPerimeter=0;exitX=0.14;exitY=0.025;exitDx=0;exitDy=0;exitPerimeter=0;" edge="1" parent="1" source="FYlKtJ1EGxiQtm9-EcXI-11" target="FYlKtJ1EGxiQtm9-EcXI-13">
          <mxGeometry width="50" height="50" relative="1" as="geometry">
            <mxPoint x="452" y="557" as="sourcePoint" />
            <mxPoint x="360" y="520" as="targetPoint" />
          </mxGeometry>
        </mxCell>
        <mxCell id="FYlKtJ1EGxiQtm9-EcXI-17" value="Player ID" style="ellipse;whiteSpace=wrap;html=1;align=center;fontStyle=4;" vertex="1" parent="1">
          <mxGeometry x="290" y="590" width="100" height="40" as="geometry" />
        </mxCell>
        <mxCell id="FYlKtJ1EGxiQtm9-EcXI-18" value="" style="endArrow=none;html=1;rounded=0;entryX=0;entryY=1;entryDx=0;entryDy=0;exitX=1;exitY=0.5;exitDx=0;exitDy=0;" edge="1" parent="1" source="FYlKtJ1EGxiQtm9-EcXI-17" target="FYlKtJ1EGxiQtm9-EcXI-11">
          <mxGeometry width="50" height="50" relative="1" as="geometry">
            <mxPoint x="420" y="680" as="sourcePoint" />
            <mxPoint x="470" y="630" as="targetPoint" />
          </mxGeometry>
        </mxCell>
        <mxCell id="FYlKtJ1EGxiQtm9-EcXI-19" value="name" style="ellipse;whiteSpace=wrap;html=1;align=center;" vertex="1" parent="1">
          <mxGeometry x="370" y="650" width="100" height="40" as="geometry" />
        </mxCell>
        <mxCell id="FYlKtJ1EGxiQtm9-EcXI-20" value="" style="endArrow=none;html=1;rounded=0;entryX=0.18;entryY=0.975;entryDx=0;entryDy=0;entryPerimeter=0;exitX=0.6;exitY=-0.025;exitDx=0;exitDy=0;exitPerimeter=0;" edge="1" parent="1" source="FYlKtJ1EGxiQtm9-EcXI-19" target="FYlKtJ1EGxiQtm9-EcXI-11">
          <mxGeometry width="50" height="50" relative="1" as="geometry">
            <mxPoint x="440" y="660" as="sourcePoint" />
            <mxPoint x="490" y="610" as="targetPoint" />
          </mxGeometry>
        </mxCell>
        <mxCell id="FYlKtJ1EGxiQtm9-EcXI-21" value="DOB" style="ellipse;whiteSpace=wrap;html=1;align=center;" vertex="1" parent="1">
          <mxGeometry x="470" y="670" width="100" height="40" as="geometry" />
        </mxCell>
        <mxCell id="FYlKtJ1EGxiQtm9-EcXI-22" value="" style="endArrow=none;html=1;rounded=0;entryX=0.37;entryY=1.05;entryDx=0;entryDy=0;entryPerimeter=0;exitX=0.31;exitY=0.075;exitDx=0;exitDy=0;exitPerimeter=0;" edge="1" parent="1" source="FYlKtJ1EGxiQtm9-EcXI-21" target="FYlKtJ1EGxiQtm9-EcXI-11">
          <mxGeometry width="50" height="50" relative="1" as="geometry">
            <mxPoint x="510" y="670" as="sourcePoint" />
            <mxPoint x="560" y="620" as="targetPoint" />
          </mxGeometry>
        </mxCell>
        <mxCell id="FYlKtJ1EGxiQtm9-EcXI-23" value="Start Year" style="ellipse;whiteSpace=wrap;html=1;align=center;" vertex="1" parent="1">
          <mxGeometry x="570" y="650" width="100" height="40" as="geometry" />
        </mxCell>
        <mxCell id="FYlKtJ1EGxiQtm9-EcXI-24" value="" style="endArrow=none;html=1;rounded=0;entryX=0;entryY=0;entryDx=0;entryDy=0;exitX=0.93;exitY=1.05;exitDx=0;exitDy=0;exitPerimeter=0;" edge="1" parent="1" source="FYlKtJ1EGxiQtm9-EcXI-11" target="FYlKtJ1EGxiQtm9-EcXI-23">
          <mxGeometry width="50" height="50" relative="1" as="geometry">
            <mxPoint x="540" y="610" as="sourcePoint" />
            <mxPoint x="590" y="560" as="targetPoint" />
          </mxGeometry>
        </mxCell>
        <mxCell id="FYlKtJ1EGxiQtm9-EcXI-25" value="Salary" style="ellipse;whiteSpace=wrap;html=1;align=center;" vertex="1" parent="1">
          <mxGeometry x="600" y="600" width="100" height="40" as="geometry" />
        </mxCell>
        <mxCell id="FYlKtJ1EGxiQtm9-EcXI-26" value="" style="endArrow=none;html=1;rounded=0;entryX=0;entryY=0.5;entryDx=0;entryDy=0;exitX=1;exitY=0.75;exitDx=0;exitDy=0;" edge="1" parent="1" source="FYlKtJ1EGxiQtm9-EcXI-11" target="FYlKtJ1EGxiQtm9-EcXI-25">
          <mxGeometry width="50" height="50" relative="1" as="geometry">
            <mxPoint x="550" y="590" as="sourcePoint" />
            <mxPoint x="600" y="540" as="targetPoint" />
          </mxGeometry>
        </mxCell>
        <mxCell id="FYlKtJ1EGxiQtm9-EcXI-27" value="Shirt Number" style="ellipse;whiteSpace=wrap;html=1;align=center;" vertex="1" parent="1">
          <mxGeometry x="590" y="540" width="100" height="40" as="geometry" />
        </mxCell>
        <mxCell id="FYlKtJ1EGxiQtm9-EcXI-28" value="" style="endArrow=none;html=1;rounded=0;entryX=-0.01;entryY=0.35;entryDx=0;entryDy=0;entryPerimeter=0;" edge="1" parent="1" source="FYlKtJ1EGxiQtm9-EcXI-11" target="FYlKtJ1EGxiQtm9-EcXI-27">
          <mxGeometry width="50" height="50" relative="1" as="geometry">
            <mxPoint x="550" y="490" as="sourcePoint" />
            <mxPoint x="600" y="440" as="targetPoint" />
          </mxGeometry>
        </mxCell>
      </root>
    </mxGraphModel>
  </diagram>
</mxfile>
